solid RadBody
  facet normal 0.000000e+00 -0.000000e+00 1.000000e+00
    outer loop
      vertex   -1.850000e+00 -2.500000e-01 5.750000e-01
      vertex   -1.850000e+00 2.500000e-01 5.750000e-01
      vertex   -1.950000e+00 -2.500000e-01 5.750000e-01
    endloop
  endfacet
  facet normal 0.000000e+00 0.000000e+00 1.000000e+00
    outer loop
      vertex   -1.950000e+00 -2.500000e-01 5.750000e-01
      vertex   -1.850000e+00 2.500000e-01 5.750000e-01
      vertex   -1.950000e+00 2.500000e-01 5.750000e-01
    endloop
  endfacet
  facet normal 0.000000e+00 -1.000000e+00 0.000000e+00
    outer loop
      vertex   -1.850000e+00 -2.500000e-01 3.250000e-01
      vertex   -1.850000e+00 -2.500000e-01 5.750000e-01
      vertex   -1.950000e+00 -2.500000e-01 3.250000e-01
    endloop
  endfacet
  facet normal 0.000000e+00 -1.000000e+00 0.000000e+00
    outer loop
      vertex   -1.950000e+00 -2.500000e-01 3.250000e-01
      vertex   -1.850000e+00 -2.500000e-01 5.750000e-01
      vertex   -1.950000e+00 -2.500000e-01 5.750000e-01
    endloop
  endfacet
  facet normal -0.000000e+00 -0.000000e+00 -1.000000e+00
    outer loop
      vertex   -1.850000e+00 2.500000e-01 3.250000e-01
      vertex   -1.850000e+00 -2.500000e-01 3.250000e-01
      vertex   -1.950000e+00 2.500000e-01 3.250000e-01
    endloop
  endfacet
  facet normal 0.000000e+00 0.000000e+00 -1.000000e+00
    outer loop
      vertex   -1.950000e+00 2.500000e-01 3.250000e-01
      vertex   -1.850000e+00 -2.500000e-01 3.250000e-01
      vertex   -1.950000e+00 -2.500000e-01 3.250000e-01
    endloop
  endfacet
  facet normal 0.000000e+00 1.000000e+00 0.000000e+00
    outer loop
      vertex   -1.850000e+00 2.500000e-01 5.750000e-01
      vertex   -1.850000e+00 2.500000e-01 3.250000e-01
      vertex   -1.950000e+00 2.500000e-01 5.750000e-01
    endloop
  endfacet
  facet normal 0.000000e+00 1.000000e+00 0.000000e+00
    outer loop
      vertex   -1.950000e+00 2.500000e-01 5.750000e-01
      vertex   -1.850000e+00 2.500000e-01 3.250000e-01
      vertex   -1.950000e+00 2.500000e-01 3.250000e-01
    endloop
  endfacet
  facet normal 1.000000e+00 0.000000e+00 -0.000000e+00
    outer loop
      vertex   -1.850000e+00 2.500000e-01 3.250000e-01
      vertex   -1.850000e+00 2.500000e-01 5.750000e-01
      vertex   -1.850000e+00 -2.500000e-01 3.250000e-01
    endloop
  endfacet
  facet normal 1.000000e+00 0.000000e+00 0.000000e+00
    outer loop
      vertex   -1.850000e+00 -2.500000e-01 3.250000e-01
      vertex   -1.850000e+00 2.500000e-01 5.750000e-01
      vertex   -1.850000e+00 -2.500000e-01 5.750000e-01
    endloop
  endfacet
  facet normal -1.000000e+00 -0.000000e+00 -0.000000e+00
    outer loop
      vertex   -1.950000e+00 2.500000e-01 5.750000e-01
      vertex   -1.950000e+00 2.500000e-01 3.250000e-01
      vertex   -1.950000e+00 -2.500000e-01 5.750000e-01
    endloop
  endfacet
  facet normal -1.000000e+00 0.000000e+00 0.000000e+00
    outer loop
      vertex   -1.950000e+00 -2.500000e-01 5.750000e-01
      vertex   -1.950000e+00 2.500000e-01 3.250000e-01
      vertex   -1.950000e+00 -2.500000e-01 3.250000e-01
    endloop
  endfacet
endsolid RadBody
