solid Brick
  facet normal 0.000000e+00 1.000000e+00 0.000000e+00
    outer loop
      vertex   0.000000e+00 6.576076e-01 1.966057e-01
      vertex   0.000000e+00 6.576076e-01 3.983943e-01
      vertex   3.500000e-01 6.576076e-01 1.966057e-01
    endloop
  endfacet
  facet normal 0.000000e+00 1.000000e+00 -0.000000e+00
    outer loop
      vertex   3.500000e-01 6.576076e-01 1.966057e-01
      vertex   0.000000e+00 6.576076e-01 3.983943e-01
      vertex   3.500000e-01 6.576076e-01 3.983943e-01
    endloop
  endfacet
  facet normal 0.000000e+00 0.000000e+00 -1.000000e+00
    outer loop
      vertex   0.000000e+00 -6.576076e-01 1.966057e-01
      vertex   0.000000e+00 6.576076e-01 1.966057e-01
      vertex   3.500000e-01 -6.576076e-01 1.966057e-01
    endloop
  endfacet
  facet normal 0.000000e+00 0.000000e+00 -1.000000e+00
    outer loop
      vertex   3.500000e-01 -6.576076e-01 1.966057e-01
      vertex   0.000000e+00 6.576076e-01 1.966057e-01
      vertex   3.500000e-01 6.576076e-01 1.966057e-01
    endloop
  endfacet
  facet normal 0.000000e+00 -1.000000e+00 0.000000e+00
    outer loop
      vertex   0.000000e+00 -6.576076e-01 3.983943e-01
      vertex   0.000000e+00 -6.576076e-01 1.966057e-01
      vertex   3.500000e-01 -6.576076e-01 3.983943e-01
    endloop
  endfacet
  facet normal 0.000000e+00 -1.000000e+00 -0.000000e+00
    outer loop
      vertex   3.500000e-01 -6.576076e-01 3.983943e-01
      vertex   0.000000e+00 -6.576076e-01 1.966057e-01
      vertex   3.500000e-01 -6.576076e-01 1.966057e-01
    endloop
  endfacet
  facet normal -0.000000e+00 0.000000e+00 1.000000e+00
    outer loop
      vertex   0.000000e+00 6.576076e-01 3.983943e-01
      vertex   0.000000e+00 -6.576076e-01 3.983943e-01
      vertex   3.500000e-01 6.576076e-01 3.983943e-01
    endloop
  endfacet
  facet normal 0.000000e+00 0.000000e+00 1.000000e+00
    outer loop
      vertex   3.500000e-01 6.576076e-01 3.983943e-01
      vertex   0.000000e+00 -6.576076e-01 3.983943e-01
      vertex   3.500000e-01 -6.576076e-01 3.983943e-01
    endloop
  endfacet
  facet normal 1.000000e+00 -0.000000e+00 0.000000e+00
    outer loop
      vertex   3.500000e-01 -6.576076e-01 3.983943e-01
      vertex   3.500000e-01 -6.576076e-01 1.966057e-01
      vertex   3.500000e-01 6.576076e-01 3.983943e-01
    endloop
  endfacet
  facet normal 1.000000e+00 0.000000e+00 0.000000e+00
    outer loop
      vertex   3.500000e-01 6.576076e-01 3.983943e-01
      vertex   3.500000e-01 -6.576076e-01 1.966057e-01
      vertex   3.500000e-01 6.576076e-01 1.966057e-01
    endloop
  endfacet
  facet normal -1.000000e+00 -0.000000e+00 -0.000000e+00
    outer loop
      vertex   0.000000e+00 6.576076e-01 3.983943e-01
      vertex   0.000000e+00 6.576076e-01 1.966057e-01
      vertex   0.000000e+00 -6.576076e-01 3.983943e-01
    endloop
  endfacet
  facet normal -1.000000e+00 0.000000e+00 0.000000e+00
    outer loop
      vertex   0.000000e+00 -6.576076e-01 3.983943e-01
      vertex   0.000000e+00 6.576076e-01 1.966057e-01
      vertex   0.000000e+00 -6.576076e-01 1.966057e-01
    endloop
  endfacet
endsolid Brick
