solid Endplate
  facet normal -1.000000e+00 0.000000e+00 0.000000e+00
    outer loop
      vertex   5.803156e-02 6.800000e-01 4.160093e-01
      vertex   5.803156e-02 6.800000e-01 7.220315e-01
      vertex   5.803156e-02 6.820000e-01 4.160093e-01
    endloop
  endfacet
  facet normal -1.000000e+00 0.000000e+00 0.000000e+00
    outer loop
      vertex   5.803156e-02 6.820000e-01 4.160093e-01
      vertex   5.803156e-02 6.800000e-01 7.220315e-01
      vertex   5.803156e-02 6.820000e-01 7.220315e-01
    endloop
  endfacet
  facet normal 0.000000e+00 0.000000e+00 -1.000000e+00
    outer loop
      vertex   6.266172e-01 6.800000e-01 4.160093e-01
      vertex   5.803156e-02 6.800000e-01 4.160093e-01
      vertex   6.266172e-01 6.820000e-01 4.160093e-01
    endloop
  endfacet
  facet normal -0.000000e+00 0.000000e+00 -1.000000e+00
    outer loop
      vertex   6.266172e-01 6.820000e-01 4.160093e-01
      vertex   5.803156e-02 6.800000e-01 4.160093e-01
      vertex   5.803156e-02 6.820000e-01 4.160093e-01
    endloop
  endfacet
  facet normal 1.000000e+00 -0.000000e+00 0.000000e+00
    outer loop
      vertex   6.266172e-01 6.800000e-01 7.220315e-01
      vertex   6.266172e-01 6.800000e-01 4.160093e-01
      vertex   6.266172e-01 6.820000e-01 7.220315e-01
    endloop
  endfacet
  facet normal 1.000000e+00 0.000000e+00 0.000000e+00
    outer loop
      vertex   6.266172e-01 6.820000e-01 7.220315e-01
      vertex   6.266172e-01 6.800000e-01 4.160093e-01
      vertex   6.266172e-01 6.820000e-01 4.160093e-01
    endloop
  endfacet
  facet normal 0.000000e+00 0.000000e+00 1.000000e+00
    outer loop
      vertex   5.803156e-02 6.800000e-01 7.220315e-01
      vertex   6.266172e-01 6.800000e-01 7.220315e-01
      vertex   5.803156e-02 6.820000e-01 7.220315e-01
    endloop
  endfacet
  facet normal -0.000000e+00 0.000000e+00 1.000000e+00
    outer loop
      vertex   5.803156e-02 6.820000e-01 7.220315e-01
      vertex   6.266172e-01 6.800000e-01 7.220315e-01
      vertex   6.266172e-01 6.820000e-01 7.220315e-01
    endloop
  endfacet
  facet normal 0.000000e+00 1.000000e+00 0.000000e+00
    outer loop
      vertex   6.266172e-01 6.820000e-01 7.220315e-01
      vertex   6.266172e-01 6.820000e-01 4.160093e-01
      vertex   5.803156e-02 6.820000e-01 7.220315e-01
    endloop
  endfacet
  facet normal 0.000000e+00 1.000000e+00 0.000000e+00
    outer loop
      vertex   5.803156e-02 6.820000e-01 7.220315e-01
      vertex   6.266172e-01 6.820000e-01 4.160093e-01
      vertex   5.803156e-02 6.820000e-01 4.160093e-01
    endloop
  endfacet
  facet normal -0.000000e+00 -1.000000e+00 -0.000000e+00
    outer loop
      vertex   6.266172e-01 6.800000e-01 7.220315e-01
      vertex   5.803156e-02 6.800000e-01 7.220315e-01
      vertex   6.266172e-01 6.800000e-01 4.160093e-01
    endloop
  endfacet
  facet normal 0.000000e+00 -1.000000e+00 0.000000e+00
    outer loop
      vertex   6.266172e-01 6.800000e-01 4.160093e-01
      vertex   5.803156e-02 6.800000e-01 7.220315e-01
      vertex   5.803156e-02 6.800000e-01 4.160093e-01
    endloop
  endfacet
endsolid Endplate
